<?xml version="1.0" standalone="no"?>
<!DOCTYPE svg PUBLIC "-//W3C//DTD SVG 20010904//EN"
 "http://www.w3.org/TR/2001/REC-SVG-20010904/DTD/svg10.dtd">
<svg version="1.0" xmlns="http://www.w3.org/2000/svg"
 width="400.000000pt" height="400.000000pt" viewBox="0 0 400.000000 400.000000"
 preserveAspectRatio="xMidYMid meet">
<metadata>
Created by potrace 1.11, written by Peter Selinger 2001-2013
</metadata>
<g transform="translate(0.000000,400.000000) scale(0.100000,-0.100000)"
fill="#000000" stroke="none">
<path d="M2404 3900 c-63 -28 -78 -52 -79 -123 0 -34 -3 -66 -6 -72 -5 -11 -3
-57 7 -117 3 -21 3 -46 -2 -55 -4 -10 -8 -20 -9 -23 -7 -28 -18 -50 -23 -50
-4 0 -21 -14 -39 -30 -18 -17 -34 -30 -37 -30 -9 0 -150 -102 -158 -114 -4 -6
-8 -7 -8 -3 0 5 -17 -4 -37 -21 -40 -31 -161 -103 -178 -106 -5 -1 -21 -8 -35
-16 -14 -8 -29 -15 -35 -16 -5 -1 -23 -8 -40 -15 -16 -7 -32 -13 -35 -13 -3
-1 -9 -4 -15 -7 -5 -4 -23 -9 -38 -13 -30 -7 -41 -15 -89 -58 -32 -30 -33 -52
-6 -104 16 -29 86 -84 108 -84 5 0 10 -4 10 -10 0 -5 6 -10 13 -10 14 0 52
-69 43 -77 -3 -3 0 -17 6 -32 11 -28 25 -497 18 -606 -1 -11 2 -65 6 -120 8
-128 10 -208 5 -219 -2 -5 -5 -111 -6 -235 -1 -157 -5 -233 -13 -248 -7 -13
-10 -23 -6 -23 3 0 -20 -27 -53 -61 -32 -33 -62 -67 -66 -75 -22 -40 -58 -5
-117 114 -24 48 -52 99 -62 115 -11 15 -16 27 -12 27 4 0 -1 9 -11 20 -10 11
-15 20 -11 20 3 0 0 13 -8 29 -8 15 -17 39 -20 52 -5 22 -29 95 -43 129 -3 8
-7 21 -9 28 -1 8 -6 21 -10 30 -4 9 -9 26 -11 36 -2 11 -10 39 -18 62 -13 40
-39 143 -49 197 -5 28 -14 153 -21 275 -2 45 -7 87 -10 92 -4 6 -3 10 2 10 4
0 8 30 7 67 0 38 3 87 7 109 5 23 10 62 13 87 10 81 17 118 32 165 8 26 17 60
20 76 3 16 11 41 16 55 6 14 12 37 13 51 1 14 8 45 16 70 7 25 13 47 14 50 1
3 9 22 18 44 9 21 17 41 17 45 0 4 5 12 12 19 6 6 13 22 15 34 2 12 11 34 21
48 19 28 24 37 70 114 34 59 152 181 184 191 10 4 18 12 18 18 0 7 14 25 30
41 37 36 41 60 18 115 -6 14 -10 31 -9 36 2 6 0 7 -4 3 -3 -3 -18 0 -33 8 -19
9 -30 10 -39 2 -7 -6 -13 -7 -13 -3 0 4 -15 -4 -32 -17 -18 -13 -59 -37 -90
-53 -32 -15 -58 -33 -58 -38 0 -6 -3 -7 -7 -4 -4 4 -19 -4 -34 -19 -15 -14
-30 -26 -33 -25 -13 1 -76 -30 -76 -38 0 -5 -35 -34 -77 -65 -132 -96 -197
-156 -333 -305 -41 -46 -81 -89 -88 -97 -7 -8 -10 -14 -6 -14 4 0 0 -8 -8 -17
-8 -10 -20 -33 -28 -50 -7 -18 -15 -33 -19 -33 -11 0 -41 -57 -34 -64 3 -3 1
-6 -5 -6 -6 0 -13 -13 -17 -30 -4 -16 -10 -30 -14 -30 -6 0 -31 -78 -29 -90 1
-3 -4 -15 -11 -28 -6 -12 -14 -40 -16 -62 -2 -22 -9 -49 -16 -61 -12 -23 -22
-69 -23 -106 -1 -11 -4 -19 -7 -17 -4 2 -10 -22 -13 -54 -4 -31 -12 -73 -18
-92 -12 -38 -15 -271 -3 -335 4 -22 8 -53 10 -70 2 -16 8 -46 15 -65 6 -19 13
-51 15 -71 2 -20 12 -63 21 -95 10 -33 19 -63 20 -69 1 -5 9 -27 18 -48 9 -20
13 -37 9 -37 -5 0 -3 -4 2 -8 6 -4 15 -18 21 -32 24 -50 42 -96 49 -120 12
-39 47 -112 69 -145 12 -16 21 -32 22 -35 3 -18 25 -55 75 -127 32 -45 56 -83
54 -85 -7 -7 197 -202 268 -257 37 -29 67 -56 67 -59 0 -4 13 -13 28 -20 16
-6 37 -20 48 -30 27 -25 111 -82 121 -82 5 0 19 -7 32 -17 23 -15 23 -17 6
-30 -11 -7 -16 -13 -12 -13 4 0 -9 -25 -28 -55 -69 -107 -77 -153 -33 -190 44
-37 114 -23 175 34 13 12 24 21 25 21 2 -1 16 4 32 10 16 6 31 8 34 5 3 -2 10
0 17 5 19 15 155 38 210 35 137 -8 203 -30 286 -96 20 -16 42 -29 48 -29 7 0
14 -7 17 -15 3 -8 22 -25 42 -37 21 -12 39 -25 42 -29 10 -13 137 -79 153 -79
9 0 17 -5 17 -11 0 -5 4 -8 9 -5 5 3 28 -1 51 -9 23 -8 47 -12 53 -8 14 8 98
10 103 1 3 -5 84 -4 92 2 1 2 7 4 12 5 6 1 13 4 18 5 4 1 11 2 16 1 4 -1 19 5
32 14 13 8 30 15 39 15 8 0 15 7 15 15 0 8 8 15 17 15 23 0 113 62 113 78 0 6
4 12 10 12 14 0 118 108 125 130 3 10 17 21 30 24 14 4 25 10 25 15 0 4 11 21
25 37 14 16 35 45 47 64 12 19 28 39 35 43 7 4 13 16 13 25 0 10 4 22 9 27 5
6 12 24 14 42 3 17 8 36 11 42 3 5 2 21 -4 35 -12 33 -51 35 -80 4 -11 -12
-20 -18 -20 -12 0 5 -4 5 -8 -1 -8 -11 -88 -65 -97 -65 -3 0 -24 -9 -48 -19
-63 -28 -78 -33 -121 -38 -22 -2 -52 -11 -67 -19 -19 -9 -30 -11 -34 -3 -4 6
-13 8 -20 5 -7 -2 -16 -2 -19 1 -3 3 -19 7 -35 8 -16 1 -39 9 -51 18 l-22 15
33 35 c40 41 58 62 83 102 11 17 32 44 48 60 25 27 32 40 26 48 -2 2 12 21 30
44 17 22 32 45 32 50 0 5 21 42 46 83 25 41 48 87 51 102 3 15 9 28 14 28 5 0
9 7 9 15 0 9 7 18 15 21 8 4 15 13 15 21 0 8 9 28 21 44 11 16 23 41 25 56 3
15 10 30 15 34 6 3 10 9 9 13 -1 4 0 16 3 27 3 10 6 22 6 24 1 3 10 24 20 48
10 23 21 66 25 96 3 29 13 66 21 82 9 16 15 50 16 76 0 70 2 93 10 93 4 0 6 8
4 18 -1 9 0 22 4 27 3 6 7 42 8 80 1 39 4 104 6 145 2 41 0 81 -6 88 -6 8 -6
12 1 12 11 0 9 114 -3 205 -3 22 -6 61 -7 88 -2 26 -5 47 -8 47 -3 0 -5 10 -6
23 -1 31 -13 97 -20 108 -3 6 -7 26 -10 47 -3 31 -11 68 -19 92 -5 16 -19 49
-30 75 -8 16 -11 33 -8 38 2 4 0 13 -6 20 -5 7 -12 24 -15 39 -2 14 -16 52
-31 84 -15 33 -33 73 -41 91 -8 18 -19 35 -24 38 -6 4 -8 11 -5 16 4 5 2 9 -3
9 -4 0 -16 17 -26 38 -10 20 -25 48 -34 62 -9 14 -17 31 -18 38 -3 15 -32 53
-51 65 -7 4 -13 14 -13 21 0 7 -10 24 -21 37 -12 13 -33 40 -48 59 -14 19 -36
45 -48 58 -13 13 -23 26 -23 30 0 12 -114 129 -144 148 -45 28 -69 27 -105 -5
-18 -16 -33 -33 -33 -38 -1 -13 -48 -66 -54 -60 -3 3 -5 31 -5 64 0 85 -8 117
-37 152 -33 38 -68 44 -118 21z m-36 -758 c-1 -9 2 -71 6 -137 3 -66 8 -158
11 -204 2 -46 6 -86 9 -89 3 -3 1 -11 -5 -19 -6 -7 -8 -13 -3 -13 5 0 9 -52 9
-116 -1 -63 2 -117 6 -120 4 -2 4 -17 -1 -33 -4 -16 -5 -32 -2 -36 3 -3 7 -68
9 -143 1 -75 2 -137 3 -137 0 0 2 -74 4 -165 3 -91 7 -235 11 -320 7 -149 9
-276 6 -350 -2 -41 6 -208 14 -286 6 -66 -8 -78 -69 -56 -55 20 -222 27 -298
12 -66 -12 -85 -20 -227 -87 l-95 -45 -40 44 c-62 66 -71 86 -50 109 9 10 25
19 35 19 10 0 24 7 32 15 8 8 17 12 20 9 2 -3 20 4 38 15 78 46 128 73 136 74
4 0 25 11 45 23 21 13 40 24 43 24 3 0 16 11 29 25 13 14 28 25 33 25 5 0 20
11 33 25 12 13 27 22 31 19 5 -3 9 0 9 6 0 6 11 15 25 22 13 6 22 14 19 19 -2
4 2 11 9 16 18 11 62 88 77 136 7 21 13 78 14 126 2 48 6 93 10 99 3 6 3 13
-2 16 -4 2 -7 28 -6 56 0 28 -2 52 -5 54 -3 2 -6 56 -6 120 0 64 -2 116 -5
116 -3 0 -6 53 -7 118 -4 167 -4 201 -4 352 0 74 -2 149 -4 165 -7 46 -8 307
-1 335 3 14 9 40 12 58 3 17 10 32 15 32 5 0 9 11 9 25 0 14 4 25 8 25 4 0 13
14 19 31 10 27 15 30 27 20 8 -7 14 -20 14 -29z m252 -193 c0 -14 11 -36 65
-131 8 -15 17 -35 18 -45 2 -10 9 -30 15 -46 7 -15 20 -53 31 -85 10 -31 26
-74 35 -94 9 -21 13 -38 10 -38 -4 0 -2 -6 4 -12 7 -9 6 -17 -4 -26 -8 -7 -14
-10 -14 -7 0 3 -6 3 -12 -2 -15 -9 -103 -14 -134 -8 -21 5 -41 55 -22 55 5 0
6 6 1 13 -4 6 -6 20 -5 30 2 10 -2 25 -8 32 -10 12 -17 139 -10 170 1 6 2 12
1 15 -1 3 -3 37 -6 75 -2 39 -6 84 -10 100 -6 27 -9 65 -6 90 2 15 50 -67 51
-86z m216 -662 c1 -12 4 -35 8 -52 5 -26 14 -163 20 -310 3 -61 1 -63 -65 -60
-57 3 -100 -7 -146 -33 -19 -10 -24 -10 -31 5 -5 10 -8 36 -5 58 9 97 10 131
1 142 -5 7 -5 14 1 17 6 4 8 12 5 19 -10 28 -9 180 2 195 8 11 30 16 76 17 36
2 78 10 94 18 33 17 38 15 40 -16z m-7 -576 c22 -12 23 -17 17 -70 -4 -31 -9
-78 -11 -106 -11 -124 -21 -198 -34 -252 -32 -126 -52 -196 -62 -215 -7 -12
-13 -29 -14 -38 -1 -8 -13 -41 -28 -72 -15 -32 -29 -69 -33 -83 -3 -14 -12
-25 -20 -25 -14 0 -18 50 -15 215 3 133 1 500 -2 540 -4 50 9 91 31 99 9 3 33
11 52 19 37 13 79 9 119 -12z"/>
</g>
</svg>
